<svg xmlns="http://www.w3.org/2000/svg" viewBox="0 0 300 420" width="300" height="420">
  <title>怒海狂涛 · 角色卡 · 奥斯本</title>
  <defs>
    <style type="text/css">
      /* 字体热替换入口：覆盖 --cjk 即可，见 art/fonts.json */
      svg {
        --cjk:   'KingHwa_OldSong','Huiwen-MinchoGBK','Noto Serif SC',serif;
        --latin: 'Old Standard TT','EB Garamond',serif;
      }
      .cjk   { font-family: var(--cjk); }
      .latin { font-family: var(--latin); }
      /* LOD2 专用的大号牌名：母版里默认隐藏。
         这条必须写在 SVG 自己身上 —— 只靠渲染脚本的 CSS 盖住，
         等于校对看到的和别人打开 SVG 看到的不是同一张图。 */
      .lod01-hide { display: none; }
    </style>
    <pattern id="h1" width="3.4" height="3.4" patternUnits="userSpaceOnUse" patternTransform="rotate(40)">
      <line x1="0" y1="0" x2="0" y2="3.4" stroke="#241E1A" stroke-width="1" opacity="0.62"/>
    </pattern>
    <pattern id="h2" width="2.2" height="2.2" patternUnits="userSpaceOnUse" patternTransform="rotate(40)">
      <line x1="0" y1="0" x2="0" y2="2.2" stroke="#241E1A" stroke-width="0.95" opacity="0.78"/>
    </pattern>
    <pattern id="hx" width="2.6" height="2.6" patternUnits="userSpaceOnUse" patternTransform="rotate(40)">
      <line x1="0" y1="0" x2="0" y2="2.6" stroke="#241E1A" stroke-width="0.9" opacity="0.8"/>
      <line x1="0" y1="0" x2="2.6" y2="0" stroke="#241E1A" stroke-width="0.9" opacity="0.8"/>
    </pattern>
    <radialGradient id="vig" cx="50%" cy="42%" r="62%">
      <stop offset="60%" stop-color="#241E1A" stop-opacity="0"/>
      <stop offset="100%" stop-color="#241E1A" stop-opacity="0.16"/>
    </radialGradient>
    <clipPath id="clipArt"><rect x="16" y="76.0" width="268" height="246.0"/></clipPath>
    <clipPath id="clipCard"><rect width="300" height="420" rx="5"/></clipPath>
    <clipPath id="clipCardW"><rect width="420" height="300" rx="5"/></clipPath>
    <clipPath id="cMed"><ellipse cx="150" cy="196" rx="98" ry="112"/></clipPath>
    <clipPath id="cB4"><path d="M141.1 143.6 C127.1 148.6,111.2 153.6,99.2 169.6 C93.6 185.6,93.6 197.6,93.6 211.6 C94.2 239.6,95.9 269.6,96.4 356.0 L203.6 356.0 C204.1 269.6,205.8 239.6,206.4 211.6 C206.4 197.6,206.4 185.6,200.8 169.6 C188.8 153.6,172.9 148.6,158.9 143.6 Z"/></clipPath>
    <clipPath id="cH4"><path d="M124.3 116.8 C124.3 88.2,175.7 88.2,175.7 116.8 C175.7 128.7,167.5 131.7,166.4 138.3 C163.6 147.2,155.9 149.6,150.0 149.6 C144.1 149.6,136.4 147.2,133.6 138.3 C132.5 131.7,124.3 128.7,124.3 116.8 Z"/></clipPath>
  </defs>
  <g clip-path="url(#clipCard)">
    <g id="paper">
      <rect width="300" height="420" fill="#EAE0C6"/>
      <path d="M0 0 L58 0 C36 16 16 36 0 58 Z" fill="#CBB995" opacity="0.26"/>
      <path d="M300 420 L242 420 C264 404 284 384 300 362 Z" fill="#CBB995" opacity="0.22"/>
      <g class="lod2-hide" fill="#CBB995" stroke="none">
        <path opacity="0.16" d="M254 346 c9 -7,21 -4,24 4 c3 8,-3 15,-12 16 c-10 1,-17 -4,-17 -11 c0 -4,2 -7,5 -9 Z"/>
        <path opacity="0.13" d="M22 176 c6 -5,14 -2,15 5 c1 6,-4 10,-10 9 c-6 -1,-9 -7,-5 -14 Z"/>
      </g>
      <rect width="300" height="420" fill="url(#vig)"/>
    </g>
    <g id="frame" fill="none" stroke="#241E1A">
      <rect x="9.5" y="9.5" width="281" height="401" stroke-width="3.0"/>
      <rect class="lod2-hide" x="15.5" y="15.5" width="269" height="389" stroke-width="1.0" opacity="0.75"/>
      <g class="lod2-hide" stroke-width="1.2" opacity="0.6">
        <path d="M15.5 23.5 L15.5 15.5 L23.5 15.5"/>
        <path d="M276.5 15.5 L284.5 15.5 L284.5 23.5"/>
        <path d="M284.5 396.5 L284.5 404.5 L276.5 404.5"/>
        <path d="M23.5 404.5 L15.5 404.5 L15.5 396.5"/>
      </g>
    </g>
    <g id="header">
      <circle cx="28" cy="29.5" r="3.4" fill="#3D6360"/>
      <text class="cjk lod2-hide" x="38" y="33.0" font-size="10" font-weight="700" letter-spacing="2.4" fill="#55483B">医生</text>
      <text class="latin lod2-hide" x="102" y="33.0" font-size="9.5" font-weight="700" letter-spacing="1.2" fill="#55483B" opacity="0.8">No. 07</text>
      <text class="cjk" x="28" y="58.0" font-size="24" font-weight="700" letter-spacing="2" fill="#241E1A">奥斯本</text>
      <line class="lod2-hide" x1="24" y1="70.0" x2="276" y2="70.0" stroke="#241E1A" stroke-width="1.4" opacity="0.9"/>
      <line class="lod2-hide" x1="24" y1="73.0" x2="276" y2="73.0" stroke="#241E1A" stroke-width="0.6" opacity="0.6"/>
    </g>
    <g id="stat0">
      <rect x="192.0" y="20.0" width="44" height="42" rx="2" fill="#EDE2C8" stroke="#241E1A" stroke-width="2.2"/>
      <line x1="192.0" y1="35.0" x2="236.0" y2="35.0" stroke="#241E1A" stroke-width="1.2"/>
      <text class="cjk" x="214.0" y="31.0" font-size="8.5" font-weight="700" text-anchor="middle" fill="#55483B">体力</text>
      <text class="latin" x="214.0" y="57.0" font-size="24" font-weight="700" text-anchor="middle" fill="#241E1A">4</text>
    </g>
    <g id="stat1">
      <rect x="240.0" y="20.0" width="44" height="42" rx="2" fill="#EDE2C8" stroke="#241E1A" stroke-width="2.2"/>
      <line x1="240.0" y1="35.0" x2="284.0" y2="35.0" stroke="#241E1A" stroke-width="1.2"/>
      <text class="cjk" x="262.0" y="31.0" font-size="8.5" font-weight="700" text-anchor="middle" fill="#55483B">生存</text>
      <text class="latin" x="262.0" y="57.0" font-size="24" font-weight="700" text-anchor="middle" fill="#241E1A">8</text>
    </g>
    <g id="art" clip-path="url(#clipArt)" transform="translate(150 197.00) scale(0.9154) translate(-150 -195.00)">
      <ellipse cx="150" cy="196" rx="98" ry="112" fill="#EDE2C8" opacity="0.30"/>
      <rect clip-path="url(#cMed)" x="52" y="84" width="196" height="224" fill="url(#h1)" opacity="0.16"/>
      <ellipse cx="150" cy="196" rx="98" ry="112" fill="none" stroke="#241E1A" stroke-width="1.6" opacity="0.55"/>
      <ellipse cx="150" cy="196" rx="93" ry="107" fill="none" stroke="#241E1A" stroke-width="0.7" opacity="0.45"/>
      <path d="M141.1 143.6 C127.1 148.6,111.2 153.6,99.2 169.6 C93.6 185.6,93.6 197.6,93.6 211.6 C94.2 239.6,95.9 269.6,96.4 356.0 L203.6 356.0 C204.1 269.6,205.8 239.6,206.4 211.6 C206.4 197.6,206.4 185.6,200.8 169.6 C188.8 153.6,172.9 148.6,158.9 143.6 Z" fill="#EDE2C8"/>
      <path d="M141.1 143.6 C127.1 148.6,111.2 153.6,99.2 169.6 C93.6 185.6,93.6 197.6,93.6 211.6 C94.2 239.6,95.9 269.6,96.4 356.0 L203.6 356.0 C204.1 269.6,205.8 239.6,206.4 211.6 C206.4 197.6,206.4 185.6,200.8 169.6 C188.8 153.6,172.9 148.6,158.9 143.6 Z" fill="#2E4A3E" opacity="0.55"/>
      <rect clip-path="url(#cB4)" x="154" y="137.5776" width="66.4" height="228.4224" fill="url(#h1)" opacity="1.0"/><rect clip-path="url(#cB4)" x="175.38" y="137.5776" width="56.4" height="228.4224" fill="url(#h2)" opacity="0.85"/><rect clip-path="url(#cB4)" x="192.3" y="137.5776" width="56.4" height="228.4224" fill="url(#hx)" opacity="0.75"/>
      <path d="M141.1 143.6 C127.1 148.6,111.2 153.6,99.2 169.6 C93.6 185.6,93.6 197.6,93.6 211.6 C94.2 239.6,95.9 269.6,96.4 356.0 L203.6 356.0 C204.1 269.6,205.8 239.6,206.4 211.6 C206.4 197.6,206.4 185.6,200.8 169.6 C188.8 153.6,172.9 148.6,158.9 143.6 Z" fill="none" stroke="#241E1A" stroke-width="2.4" stroke-linecap="round" stroke-linejoin="round"/>
      <path clip-path="url(#cB4)" d="M99.2 169.6 C112.6 185.6,116.6 213.6,114.6 356.0" fill="none" stroke="#241E1A" stroke-width="1.9" opacity="0.85"/>
      <path clip-path="url(#cB4)" d="M200.8 169.6 C187.4 185.6,183.4 213.6,185.4 356.0" fill="none" stroke="#241E1A" stroke-width="1.9" opacity="0.85"/>
      <path d="M141.1 143.6 C140.1 141.6,138.1 145.6,137.1 148.6 L162.9 148.6 C161.9 145.6,159.9 141.6,158.9 143.6 Z" fill="#EDE2C8" stroke="#241E1A" stroke-width="2.0"/>
      <path d="M141.1 143.6 C146.0 154.6,154.0 154.6,158.9 143.6 L158.9 151.6 Z" fill="#241E1A" opacity="0.22"/>
      <path d="M124.3 116.8 C124.3 88.2,175.7 88.2,175.7 116.8 C175.7 128.7,167.5 131.7,166.4 138.3 C163.6 147.2,155.9 149.6,150.0 149.6 C144.1 149.6,136.4 147.2,133.6 138.3 C132.5 131.7,124.3 128.7,124.3 116.8 Z" fill="#EDE2C8"/>
      <rect clip-path="url(#cH4)" x="158.2176" y="90.0" width="25.68" height="65.53536" fill="url(#h1)" opacity="0.4"/>
      <path d="M124.3 116.8 C124.3 88.2,175.7 88.2,175.7 116.8 C175.7 128.7,167.5 131.7,166.4 138.3 C163.6 147.2,155.9 149.6,150.0 149.6 C144.1 149.6,136.4 147.2,133.6 138.3 C132.5 131.7,124.3 128.7,124.3 116.8 Z" fill="none" stroke="#241E1A" stroke-width="2.4"/>
      <path d="M135.2 113.2 Q139.7 109.7 144.2 113.2" fill="none" stroke="#241E1A" stroke-width="1.5" opacity="0.9"/>
      <path d="M164.8 113.2 Q160.3 109.7 155.8 113.2" fill="none" stroke="#241E1A" stroke-width="1.5" opacity="0.9"/>
      <path d="M134.9 118.4 Q139.7 114.8 144.5 118.4" fill="none" stroke="#241E1A" stroke-width="1.6" opacity="0.95"/>
      <circle cx="139.7" cy="119.8" r="1.7" fill="#241E1A"/>
      <path d="M135.9 121.2 Q139.7 122.4 143.5 121.0" fill="none" stroke="#55483B" stroke-width="0.9" opacity="0.5"/>
      <path d="M155.5 118.4 Q160.3 114.8 165.1 118.4" fill="none" stroke="#241E1A" stroke-width="1.6" opacity="0.95"/>
      <circle cx="160.3" cy="119.8" r="1.7" fill="#241E1A"/>
      <path d="M156.5 121.2 Q160.3 122.4 164.1 121.0" fill="none" stroke="#55483B" stroke-width="0.9" opacity="0.5"/>
      <path d="M148.4 122.2 C146.8 125.2,146.4 128.1,148.6 129.3" fill="none" stroke="#241E1A" stroke-width="1.3" opacity="0.85"/>
      <path d="M146.6 129.3 q3.0 2.2 6.0 -0.6" fill="none" stroke="#241E1A" stroke-width="1.3" opacity="0.85"/>
      <path d="M142.3 135.9 q7.7 -1.6 15.4 0" fill="none" stroke="#241E1A" stroke-width="1.5" opacity="0.85"/>
      <path d="M136.6 132.4 C142.3 128.4,157.7 128.4,163.4 132.4 C156.2 134.9,143.8 134.9,136.6 132.4 Z" fill="#55483B" stroke="#241E1A" stroke-width="1.5"/>
      <circle cx="139.7" cy="119.2" r="7.2" fill="none" stroke="#241E1A" stroke-width="1.7"/>
      <circle cx="160.3" cy="119.2" r="7.2" fill="none" stroke="#241E1A" stroke-width="1.7"/>
      <path d="M146.9 119.2 L153.1 119.2" fill="none" stroke="#241E1A" stroke-width="1.5" opacity="0.9"/>
      <path d="M132.5 119.2 L124.3 117.2" fill="none" stroke="#241E1A" stroke-width="1.3" opacity="0.8"/>
      <path d="M167.5 119.2 L175.7 117.2" fill="none" stroke="#241E1A" stroke-width="1.3" opacity="0.8"/>
      <path d="M124.3 113.2 C122.3 82.0,177.7 82.0,175.7 113.2 C162.8 98.3,137.2 98.3,124.3 113.2 Z" fill="#8C7C67" stroke="#241E1A" stroke-width="2.2"/>
      <path d="M131.5 110.9 C129.5 101.9,133.5 96.0,131.5 90.0" fill="none" stroke="#241E1A" stroke-width="0.9" opacity="0.55"/>
      <path d="M140.8 110.9 C138.8 101.9,142.8 96.0,140.8 90.0" fill="none" stroke="#241E1A" stroke-width="0.9" opacity="0.55"/>
      <path d="M150.0 110.9 C148.0 101.9,152.0 96.0,150.0 90.0" fill="none" stroke="#241E1A" stroke-width="0.9" opacity="0.55"/>
      <path d="M159.2 110.9 C157.2 101.9,161.2 96.0,159.2 90.0" fill="none" stroke="#241E1A" stroke-width="0.9" opacity="0.55"/>
      <path d="M168.5 110.9 C166.5 101.9,170.5 96.0,168.5 90.0" fill="none" stroke="#241E1A" stroke-width="0.9" opacity="0.55"/>
      <path d="M124.0 151.6 L150 191.6 L176.0 151.6" fill="none" stroke="#241E1A" stroke-width="2.2" stroke-linecap="round" stroke-linejoin="round"/>
      <path d="M137.0 151.6 L150 173.6 L163.0 151.6 Z" fill="#EDE2C8" stroke="#241E1A" stroke-width="1.2" opacity="0.9"/>
      <path d="M128.0 153.6 L172.0 153.6" fill="none" stroke="#241E1A" stroke-width="2.0" stroke-linecap="round" stroke-linejoin="round"/>
      <path d="M130.0 159.6 C116.0 207.6,184.0 207.6,170.0 159.6" fill="none" stroke="#241E1A" stroke-width="2.6"/>
      <circle cx="150" cy="219.6" r="6" fill="#8C7C67" stroke="#241E1A" stroke-width="1.8"/>
    </g>
    <g id="rule-panel" class="lod1-hide lod2-hide">
      <rect x="24" y="324.0" width="252" height="30.0" rx="2" fill="#CBB995" opacity="0.55"/>
      <rect x="24" y="324.0" width="252" height="30.0" rx="2" fill="none" stroke="#241E1A" stroke-width="1.0" opacity="0.6"/>
      <text class="cjk" x="150" y="344.0" font-size="10" font-weight="500" text-anchor="middle" fill="#241E1A">医疗箱用后不弃，留在你面前</text>
    </g>
    <g id="footer" class="lod2-hide">
      <g transform="rotate(-6 253.0 384.0)" opacity="0.6">
        <rect x="234.0" y="378.0" width="38" height="12" rx="1.5" fill="none" stroke="#A8402C" stroke-width="1.6"/>
        <text class="latin" x="253.0" y="386.6" font-size="7.6" fill="#A8402C" text-anchor="middle" letter-spacing="1.2">CREW</text>
      </g>
    </g>
    <text class="cjk lod01-hide" x="150" y="368" font-size="40" font-weight="700" letter-spacing="3" text-anchor="middle" fill="#241E1A">奥斯本</text>
  </g>
</svg>
