<svg xmlns="http://www.w3.org/2000/svg" width="192" height="192" viewBox="0 0 192 192"><defs><linearGradient id="z" x1="0" y1="0" x2="1" y2="1"><stop offset="0" stop-color="#84714A"/><stop offset=".6" stop-color="#4E4027"/><stop offset="1" stop-color="#2E2513"/></linearGradient><radialGradient id="s" cx=".35" cy=".35" r=".7"><stop offset="0" stop-color="#A8935E"/><stop offset="1" stop-color="#3A2F18"/></radialGradient></defs><g><path d="M0 0H88 V30 H30 V88 H0Z" fill="url(#z)" stroke="#1D160A" stroke-width="3"/><path d="M5 5H82" stroke="#E6D296" stroke-opacity=".3" stroke-width="3"/><g transform="translate(16 16)"><circle r="8" fill="url(#s)" stroke="#1D160A" stroke-width="2"/><path d="M-5 5L5 -5" stroke="#1D160A" stroke-width="3"/></g><g transform="translate(72 15)"><circle r="8" fill="url(#s)" stroke="#1D160A" stroke-width="2"/><path d="M-5 5L5 -5" stroke="#1D160A" stroke-width="3"/></g></g><g transform="translate(192 0) scale(-1 1)"><path d="M0 0H88 V30 H30 V88 H0Z" fill="url(#z)" stroke="#1D160A" stroke-width="3"/><path d="M5 5H82" stroke="#E6D296" stroke-opacity=".3" stroke-width="3"/><g transform="translate(16 16)"><circle r="8" fill="url(#s)" stroke="#1D160A" stroke-width="2"/><path d="M-5 5L5 -5" stroke="#1D160A" stroke-width="3"/></g><g transform="translate(72 15)"><circle r="8" fill="url(#s)" stroke="#1D160A" stroke-width="2"/><path d="M-5 5L5 -5" stroke="#1D160A" stroke-width="3"/></g></g><g transform="translate(0 192) scale(1 -1)"><path d="M0 0H88 V30 H30 V88 H0Z" fill="url(#z)" stroke="#1D160A" stroke-width="3"/><path d="M5 5H82" stroke="#E6D296" stroke-opacity=".3" stroke-width="3"/><g transform="translate(16 16)"><circle r="8" fill="url(#s)" stroke="#1D160A" stroke-width="2"/><path d="M-5 5L5 -5" stroke="#1D160A" stroke-width="3"/></g><g transform="translate(72 15)"><circle r="8" fill="url(#s)" stroke="#1D160A" stroke-width="2"/><path d="M-5 5L5 -5" stroke="#1D160A" stroke-width="3"/></g></g><g transform="translate(192 192) scale(-1 -1)"><path d="M0 0H88 V30 H30 V88 H0Z" fill="url(#z)" stroke="#1D160A" stroke-width="3"/><path d="M5 5H82" stroke="#E6D296" stroke-opacity=".3" stroke-width="3"/><g transform="translate(16 16)"><circle r="8" fill="url(#s)" stroke="#1D160A" stroke-width="2"/><path d="M-5 5L5 -5" stroke="#1D160A" stroke-width="3"/></g><g transform="translate(72 15)"><circle r="8" fill="url(#s)" stroke="#1D160A" stroke-width="2"/><path d="M-5 5L5 -5" stroke="#1D160A" stroke-width="3"/></g></g></svg>
