<svg xmlns="http://www.w3.org/2000/svg" width="192" height="192" viewBox="0 0 192 192"><defs><linearGradient id="b" x1="0" y1="0" x2="1" y2="1"><stop offset="0" stop-color="#EBD389"/><stop offset=".55" stop-color="#A9822C"/><stop offset="1" stop-color="#6A4C14"/></linearGradient><radialGradient id="r" cx=".35" cy=".35" r=".7"><stop offset="0" stop-color="#F6E6AE"/><stop offset="1" stop-color="#5A4012"/></radialGradient></defs><g><path d="M0 0H88 L0 88Z" fill="url(#b)" stroke="#3D2B0B" stroke-width="3"/><path d="M6 6H66" stroke="#FFF3C8" stroke-opacity=".55" stroke-width="3"/><circle cx="22" cy="22" r="7" fill="url(#r)" stroke="#3D2B0B" stroke-width="2"/></g><g transform="translate(192 0) scale(-1 1)"><path d="M0 0H88 L0 88Z" fill="url(#b)" stroke="#3D2B0B" stroke-width="3"/><path d="M6 6H66" stroke="#FFF3C8" stroke-opacity=".55" stroke-width="3"/><circle cx="22" cy="22" r="7" fill="url(#r)" stroke="#3D2B0B" stroke-width="2"/></g><g transform="translate(0 192) scale(1 -1)"><path d="M0 0H88 L0 88Z" fill="url(#b)" stroke="#3D2B0B" stroke-width="3"/><path d="M6 6H66" stroke="#FFF3C8" stroke-opacity=".55" stroke-width="3"/><circle cx="22" cy="22" r="7" fill="url(#r)" stroke="#3D2B0B" stroke-width="2"/></g><g transform="translate(192 192) scale(-1 -1)"><path d="M0 0H88 L0 88Z" fill="url(#b)" stroke="#3D2B0B" stroke-width="3"/><path d="M6 6H66" stroke="#FFF3C8" stroke-opacity=".55" stroke-width="3"/><circle cx="22" cy="22" r="7" fill="url(#r)" stroke="#3D2B0B" stroke-width="2"/></g></svg>
