<svg xmlns="http://www.w3.org/2000/svg" viewBox="0 0 300 420" width="300" height="420">
  <title>怒海狂涛 · 牌背 · 秘密</title>
  <defs>
    <style type="text/css">
      /* 字体热替换入口：覆盖 --cjk 即可，见 art/fonts.json */
      svg {
        --cjk:   'KingHwa_OldSong','Huiwen-MinchoGBK','Noto Serif SC',serif;
        --latin: 'Old Standard TT','EB Garamond',serif;
      }
      .cjk   { font-family: var(--cjk); }
      .latin { font-family: var(--latin); }
      /* LOD2 专用的大号牌名：母版里默认隐藏。
         这条必须写在 SVG 自己身上 —— 只靠渲染脚本的 CSS 盖住，
         等于校对看到的和别人打开 SVG 看到的不是同一张图。 */
      .lod01-hide { display: none; }
    </style>
    <pattern id="h1" width="3.4" height="3.4" patternUnits="userSpaceOnUse" patternTransform="rotate(40)">
      <line x1="0" y1="0" x2="0" y2="3.4" stroke="#241E1A" stroke-width="1" opacity="0.62"/>
    </pattern>
    <pattern id="h2" width="2.2" height="2.2" patternUnits="userSpaceOnUse" patternTransform="rotate(40)">
      <line x1="0" y1="0" x2="0" y2="2.2" stroke="#241E1A" stroke-width="0.95" opacity="0.78"/>
    </pattern>
    <pattern id="hx" width="2.6" height="2.6" patternUnits="userSpaceOnUse" patternTransform="rotate(40)">
      <line x1="0" y1="0" x2="0" y2="2.6" stroke="#241E1A" stroke-width="0.9" opacity="0.8"/>
      <line x1="0" y1="0" x2="2.6" y2="0" stroke="#241E1A" stroke-width="0.9" opacity="0.8"/>
    </pattern>
    <radialGradient id="vig" cx="50%" cy="42%" r="62%">
      <stop offset="60%" stop-color="#241E1A" stop-opacity="0"/>
      <stop offset="100%" stop-color="#241E1A" stop-opacity="0.16"/>
    </radialGradient>
    <clipPath id="clipArt"><rect x="16" y="76.0" width="268" height="246.0"/></clipPath>
    <clipPath id="clipCard"><rect width="300" height="420" rx="5"/></clipPath>
    <clipPath id="clipCardW"><rect width="420" height="300" rx="5"/></clipPath>
  </defs>
  <g clip-path="url(#clipCard)">
    <g id="paper">
      <rect width="300" height="420" fill="#E8DCC0"/>
      <path d="M0 0 L58 0 C36 16 16 36 0 58 Z" fill="#CBB995" opacity="0.26"/>
      <path d="M300 420 L242 420 C264 404 284 384 300 362 Z" fill="#CBB995" opacity="0.22"/>
      <rect width="300" height="420" fill="url(#vig)"/>
    </g>
    <rect x="9.5" y="9.5" width="281" height="401" fill="none" stroke="#241E1A" stroke-width="3.0"/>
    <rect x="19" y="19" width="262" height="382" fill="none" stroke="#241E1A" stroke-width="1.2" opacity="0.7"/>
    <rect x="26" y="26" width="248" height="368" fill="url(#h1)" opacity="0.22"/>
    <circle cx="150" cy="186" r="74" fill="#EDE2C8" stroke="#241E1A" stroke-width="2.6"/>
    <circle cx="150" cy="186" r="66" fill="none" stroke="#241E1A" stroke-width="1.1" opacity="0.7"/>
    <line x1="150.0" y1="118.0" x2="150.0" y2="114.0" stroke="#241E1A" stroke-width="1.2" opacity="0.5"/>
    <line x1="161.8" y1="119.0" x2="162.5" y2="115.1" stroke="#241E1A" stroke-width="1.2" opacity="0.5"/>
    <line x1="173.3" y1="122.1" x2="174.6" y2="118.3" stroke="#241E1A" stroke-width="1.2" opacity="0.5"/>
    <line x1="184.0" y1="127.1" x2="186.0" y2="123.6" stroke="#241E1A" stroke-width="1.2" opacity="0.5"/>
    <line x1="193.7" y1="133.9" x2="196.3" y2="130.8" stroke="#241E1A" stroke-width="1.2" opacity="0.5"/>
    <line x1="202.1" y1="142.3" x2="205.2" y2="139.7" stroke="#241E1A" stroke-width="1.2" opacity="0.5"/>
    <line x1="208.9" y1="152.0" x2="212.4" y2="150.0" stroke="#241E1A" stroke-width="1.2" opacity="0.5"/>
    <line x1="213.9" y1="162.7" x2="217.7" y2="161.4" stroke="#241E1A" stroke-width="1.2" opacity="0.5"/>
    <line x1="217.0" y1="174.2" x2="220.9" y2="173.5" stroke="#241E1A" stroke-width="1.2" opacity="0.5"/>
    <line x1="218.0" y1="186.0" x2="222.0" y2="186.0" stroke="#241E1A" stroke-width="1.2" opacity="0.5"/>
    <line x1="217.0" y1="197.8" x2="220.9" y2="198.5" stroke="#241E1A" stroke-width="1.2" opacity="0.5"/>
    <line x1="213.9" y1="209.3" x2="217.7" y2="210.6" stroke="#241E1A" stroke-width="1.2" opacity="0.5"/>
    <line x1="208.9" y1="220.0" x2="212.4" y2="222.0" stroke="#241E1A" stroke-width="1.2" opacity="0.5"/>
    <line x1="202.1" y1="229.7" x2="205.2" y2="232.3" stroke="#241E1A" stroke-width="1.2" opacity="0.5"/>
    <line x1="193.7" y1="238.1" x2="196.3" y2="241.2" stroke="#241E1A" stroke-width="1.2" opacity="0.5"/>
    <line x1="184.0" y1="244.9" x2="186.0" y2="248.4" stroke="#241E1A" stroke-width="1.2" opacity="0.5"/>
    <line x1="173.3" y1="249.9" x2="174.6" y2="253.7" stroke="#241E1A" stroke-width="1.2" opacity="0.5"/>
    <line x1="161.8" y1="253.0" x2="162.5" y2="256.9" stroke="#241E1A" stroke-width="1.2" opacity="0.5"/>
    <line x1="150.0" y1="254.0" x2="150.0" y2="258.0" stroke="#241E1A" stroke-width="1.2" opacity="0.5"/>
    <line x1="138.2" y1="253.0" x2="137.5" y2="256.9" stroke="#241E1A" stroke-width="1.2" opacity="0.5"/>
    <line x1="126.7" y1="249.9" x2="125.4" y2="253.7" stroke="#241E1A" stroke-width="1.2" opacity="0.5"/>
    <line x1="116.0" y1="244.9" x2="114.0" y2="248.4" stroke="#241E1A" stroke-width="1.2" opacity="0.5"/>
    <line x1="106.3" y1="238.1" x2="103.7" y2="241.2" stroke="#241E1A" stroke-width="1.2" opacity="0.5"/>
    <line x1="97.9" y1="229.7" x2="94.8" y2="232.3" stroke="#241E1A" stroke-width="1.2" opacity="0.5"/>
    <line x1="91.1" y1="220.0" x2="87.6" y2="222.0" stroke="#241E1A" stroke-width="1.2" opacity="0.5"/>
    <line x1="86.1" y1="209.3" x2="82.3" y2="210.6" stroke="#241E1A" stroke-width="1.2" opacity="0.5"/>
    <line x1="83.0" y1="197.8" x2="79.1" y2="198.5" stroke="#241E1A" stroke-width="1.2" opacity="0.5"/>
    <line x1="82.0" y1="186.0" x2="78.0" y2="186.0" stroke="#241E1A" stroke-width="1.2" opacity="0.5"/>
    <line x1="83.0" y1="174.2" x2="79.1" y2="173.5" stroke="#241E1A" stroke-width="1.2" opacity="0.5"/>
    <line x1="86.1" y1="162.7" x2="82.3" y2="161.4" stroke="#241E1A" stroke-width="1.2" opacity="0.5"/>
    <line x1="91.1" y1="152.0" x2="87.6" y2="150.0" stroke="#241E1A" stroke-width="1.2" opacity="0.5"/>
    <line x1="97.9" y1="142.3" x2="94.8" y2="139.7" stroke="#241E1A" stroke-width="1.2" opacity="0.5"/>
    <line x1="106.3" y1="133.9" x2="103.7" y2="130.8" stroke="#241E1A" stroke-width="1.2" opacity="0.5"/>
    <line x1="116.0" y1="127.1" x2="114.0" y2="123.6" stroke="#241E1A" stroke-width="1.2" opacity="0.5"/>
    <line x1="126.7" y1="122.1" x2="125.4" y2="118.3" stroke="#241E1A" stroke-width="1.2" opacity="0.5"/>
    <line x1="138.2" y1="119.0" x2="137.5" y2="115.1" stroke="#241E1A" stroke-width="1.2" opacity="0.5"/>
    <path d="M150 146 c16 0 26 12 26 26 c0 10 -8 16 -14 20 c-6 4 -8 8 -8 14 l-8 0 c0 -10 4 -16 10 -20 c6 -4 10 -8 10 -14 c0 -8 -6 -14 -16 -14 c-10 0 -16 6 -16 16 l-10 0 c0 -16 10 -28 26 -28 Z" fill="#A8402C" stroke="#241E1A" stroke-width="2"/>
    <circle cx="150" cy="226" r="5.5" fill="#A8402C" stroke="#241E1A" stroke-width="2"/>
    <text class="cjk" x="150" y="376" font-size="13" font-weight="700" letter-spacing="6" text-anchor="middle" fill="#55483B" opacity="0.8">秘密</text>
    <text class="latin" x="150" y="392" font-size="9" letter-spacing="3" text-anchor="middle" fill="#55483B" opacity="0.55">HEAVY SEAS</text>
  </g>
</svg>
